<?xml version="1.0" ?><svg id="Layer_1_1_" style="enable-background:new 0 0 64 64;" version="1.1" viewBox="0 0 64 64" xml:space="preserve" xmlns="http://www.w3.org/2000/svg" xmlns:xlink="http://www.w3.org/1999/xlink"><g><path d="M1,6v52h62V6H1z M61,8v6H3V8H61z M3,56V16h58v40H3z"/><rect height="2" width="2" x="5" y="10"/><rect height="2" width="2" x="9" y="10"/><rect height="2" width="2" x="13" y="10"/><path d="M44,24c-3.676,0-7.217,1.372-9.952,3.804C31.899,21.958,26.349,18,20,18c-8.271,0-15,6.729-15,15s6.729,15,15,15   c3.676,0,7.217-1.372,9.952-3.804C32.101,50.042,37.651,54,44,54c8.271,0,15-6.729,15-15S52.271,24,44,24z M20,46   c-7.168,0-13-5.832-13-13s5.832-13,13-13c6,0,11.187,4.073,12.613,9.905C32.87,30.955,33,31.996,33,33   c0,3.192-1.182,6.269-3.329,8.664l0,0C27.201,44.42,23.675,46,20,46z M44,52c-5.83,0-10.892-3.846-12.483-9.414   C33.767,39.888,35,36.505,35,33c0-0.992-0.109-2.012-0.323-3.037C37.124,27.438,40.494,26,44,26c7.168,0,13,5.832,13,13   S51.168,52,44,52z"/><path d="M20,23c-3.309,0-6,2.691-6,6v6c0,3.309,2.691,6,6,6c0.789,0,1.542-0.157,2.233-0.435c0.568,0.885,1.308,1.665,2.212,2.267   l1.109-1.664c-0.659-0.44-1.202-1.006-1.62-1.649C25.197,38.418,26,36.803,26,35v-6C26,25.691,23.309,23,20,23z M24,35   c0,0.941-0.34,1.796-0.886,2.48C23.046,37.125,23,36.764,23,36.395V36h-2v0.395c0,0.81,0.139,1.596,0.378,2.346   C20.946,38.9,20.486,39,20,39c-2.206,0-4-1.794-4-4v-6c0-2.206,1.794-4,4-4s4,1.794,4,4V35z"/><path d="M45.735,30h-3.471l-3.437,11H37v2h1.202l-1.157,3.702l1.909,0.596L40.298,43h7.405l1.343,4.298l1.909-0.596L49.798,43H51   v-2h-1.827L45.735,30z M40.923,41l2.813-9h0.529l2.813,9H40.923z"/></g></svg>