<?xml version="1.0" encoding="iso-8859-1"?>
<!-- Generator: Adobe Illustrator 18.0.0, SVG Export Plug-In . SVG Version: 6.00 Build 0)  -->
<!DOCTYPE svg PUBLIC "-//W3C//DTD SVG 1.1//EN" "http://www.w3.org/Graphics/SVG/1.1/DTD/svg11.dtd">
<svg version="1.1" id="Capa_1" xmlns="http://www.w3.org/2000/svg" xmlns:xlink="http://www.w3.org/1999/xlink" x="0px" y="0px"
	 viewBox="0 0 301.945 301.945" style="enable-background:new 0 0 301.945 301.945;" xml:space="preserve">
<g>
	<path d="M299.303,80.65l-0.422-6.161l-3.543-28.918l-3.549,3.087c-1.996,1.735-3.867,3.351-5.621,4.863
		c-26.859,23.182-27.063,23.771-21.475,63.092l0.225,1.59c4.965,35.066,4.955,71.303,4.945,106.346
		c-0.004,8.34-0.006,16.964,0.059,25.423l0.051,6.402l4.301-4.741C308.477,213.935,302.735,130.501,299.303,80.65z"/>
	<path d="M229.758,132.776c0.051-2.879,0.107-5.774,0.166-8.671c0.619-30.891,1.205-60.069-6.711-74.748l-1.639-3.041l-2.377,2.51
		c-3.596,3.797-6.717,6.842-9.471,9.527c-13.672,13.337-16.691,17.437-11.242,42.461c2.951,13.553,11.24,72.814-5.537,93.64
		c-3.922,4.868-8.848,7.234-15.061,7.235h-0.004c-1.498,0-3.092-0.144-4.736-0.426c-14.307-2.457-13.361-41.776-12.529-76.467
		c0.752-31.295,1.461-60.855-6.404-75.439l-1.639-3.041l-2.377,2.51c-3.596,3.797-6.717,6.842-9.471,9.527
		c-13.672,13.337-16.691,17.437-11.242,42.461c6.914,31.751,5.207,65.221,2.949,90.833c-0.568,6.462-8.445,9.354-15.996,9.354
		c-6.441,0-12.242-2.029-15.143-5.297c-10.975-12.368-12.387-29.235-13.883-47.093c-1.342-16.036-2.73-32.618-11.744-45.644
		l-1.619-2.342c0,0-10.129,1.731-11.826,11.596c-1.699,9.864-1.418,26.584-32.186,45.469c-3.49,2.143-7.109,4.35-10.646,6.766
		c-21.625,14.781-20.615,30.698-18.09,38.87c4.809,15.554,22.32,27.739,39.869,27.739c14.686,0,26.217-8.338,32.441-23.147
		c8.521,19.464,31.172,36.779,49.861,36.779c7.309,0,19.635-2.776,26.586-19.754c4.877,12.686,15.018,19.788,28.75,19.788
		c23.719,0,51.291-22.404,51.291-51.236c0.219-10.472,0.223-26.225,0.154-37.475C230.159,140.424,230.065,134.954,229.758,132.776z
		 M57.633,194.799c-1.965,1.311-4.535,2.004-7.432,2.004c-4.309,0-12.771-1.582-22.471-11.785
		c10.551-9.445,22.795-16.038,36.457-19.631C65.797,173.695,62.629,191.469,57.633,194.799z"/>
</g>
<g>
</g>
<g>
</g>
<g>
</g>
<g>
</g>
<g>
</g>
<g>
</g>
<g>
</g>
<g>
</g>
<g>
</g>
<g>
</g>
<g>
</g>
<g>
</g>
<g>
</g>
<g>
</g>
<g>
</g>
</svg>
