<svg xmlns="http://www.w3.org/2000/svg" height="512pt" version="1.1" viewBox="0 -16 512 512" width="512pt">
<g id="surface1">
<path d="M 512 111.402344 C 512 94.269531 498.0625 80.335938 480.933594 80.335938 C 480.347656 80.335938 479.867188 79.855469 479.867188 79.269531 C 479.867188 70.984375 473.152344 64.269531 464.867188 64.269531 C 456.585938 64.269531 449.867188 70.984375 449.867188 79.269531 C 449.867188 79.855469 449.390625 80.335938 448.800781 80.335938 C 431.671875 80.335938 417.734375 94.273438 417.734375 111.402344 C 417.734375 114.730469 418.269531 117.9375 419.242188 120.949219 C 418.285156 122.921875 417.734375 125.128906 417.734375 127.46875 L 417.734375 232.96875 L 359.367188 232.96875 L 359.367188 183.699219 C 359.367188 182.789062 359.273438 181.898438 359.117188 181.03125 C 374.027344 167.964844 383.46875 148.804688 383.46875 127.46875 C 383.46875 88.1875 351.511719 56.234375 312.234375 56.234375 C 289.496094 56.234375 271 37.738281 271 15 C 271 6.714844 264.285156 0 256 0 C 247.714844 0 241 6.714844 241 15 C 241 37.734375 222.503906 56.234375 199.769531 56.234375 C 160.488281 56.234375 128.535156 88.1875 128.535156 127.464844 C 128.535156 148.800781 137.976562 167.960938 152.886719 181.027344 C 152.730469 181.894531 152.632812 182.785156 152.632812 183.699219 L 152.632812 232.96875 L 94.265625 232.96875 L 94.265625 127.46875 C 94.265625 125.128906 93.714844 122.921875 92.757812 120.945312 C 93.734375 117.9375 94.265625 114.730469 94.265625 111.398438 C 94.265625 94.269531 80.328125 80.335938 63.199219 80.335938 C 62.613281 80.335938 62.132812 79.855469 62.132812 79.269531 C 62.132812 70.984375 55.417969 64.269531 47.132812 64.269531 C 38.851562 64.269531 32.132812 70.984375 32.132812 79.269531 C 32.132812 79.855469 31.65625 80.335938 31.066406 80.335938 C 13.9375 80.335938 0 94.269531 0 111.402344 C 0 114.730469 0.53125 117.9375 1.507812 120.949219 C 0.550781 122.921875 0 125.128906 0 127.46875 L 0 424.699219 C 0 455.117188 21.144531 479.867188 47.132812 479.867188 L 464.867188 479.867188 C 490.855469 479.867188 512 455.117188 512 424.699219 L 512 127.46875 C 512 125.128906 511.449219 122.921875 510.492188 120.945312 C 511.46875 117.9375 512 114.730469 512 111.402344 Z M 448.800781 110.335938 C 454.675781 110.335938 460.175781 108.695312 464.867188 105.847656 C 469.558594 108.695312 475.058594 110.335938 480.933594 110.335938 C 481.519531 110.335938 482 110.8125 482 111.398438 C 482 111.988281 481.519531 112.464844 480.933594 112.464844 L 448.800781 112.464844 C 448.210938 112.464844 447.734375 111.988281 447.734375 111.398438 C 447.734375 110.8125 448.214844 110.335938 448.800781 110.335938 Z M 199.769531 86.234375 C 222.601562 86.234375 242.957031 75.4375 256 58.679688 C 269.046875 75.4375 289.398438 86.234375 312.230469 86.234375 C 334.96875 86.234375 353.464844 104.730469 353.464844 127.46875 C 353.464844 150.203125 334.96875 168.699219 312.230469 168.699219 L 199.769531 168.699219 C 177.03125 168.699219 158.535156 150.203125 158.535156 127.46875 C 158.535156 104.730469 177.03125 86.234375 199.769531 86.234375 Z M 312.230469 198.699219 L 329.367188 198.699219 L 329.367188 232.96875 L 182.632812 232.96875 L 182.632812 198.699219 Z M 31.066406 110.335938 C 36.941406 110.335938 42.441406 108.695312 47.132812 105.847656 C 51.820312 108.695312 57.320312 110.335938 63.199219 110.335938 C 63.785156 110.335938 64.265625 110.8125 64.265625 111.398438 C 64.265625 111.988281 63.785156 112.464844 63.199219 112.464844 L 31.066406 112.464844 C 30.476562 112.464844 30 111.988281 30 111.398438 C 30 110.8125 30.480469 110.335938 31.066406 110.335938 Z M 30 424.699219 L 30 142.46875 L 64.265625 142.46875 L 64.265625 449.867188 L 47.132812 449.867188 C 38.007812 449.867188 30 438.105469 30 424.699219 Z M 94.265625 262.96875 L 152.632812 262.96875 L 152.632812 449.867188 L 94.265625 449.867188 Z M 182.632812 262.96875 L 329.367188 262.96875 L 329.367188 449.867188 L 303.132812 449.867188 L 303.132812 400.601562 C 303.132812 374.460938 268.976562 357.84375 262.128906 354.777344 C 258.230469 353.03125 253.769531 353.03125 249.871094 354.777344 C 243.023438 357.84375 208.867188 374.460938 208.867188 400.601562 L 208.867188 449.867188 L 182.632812 449.867188 Z M 238.867188 449.867188 L 238.867188 400.609375 C 239.050781 397.640625 246.59375 390.699219 255.996094 385.304688 C 265.410156 390.707031 272.949219 397.640625 273.132812 400.601562 L 273.132812 449.867188 Z M 359.367188 262.96875 L 417.734375 262.96875 L 417.734375 449.867188 L 359.367188 449.867188 Z M 482 424.699219 C 482 438.105469 473.992188 449.867188 464.867188 449.867188 L 447.734375 449.867188 L 447.734375 142.46875 L 482 142.46875 Z M 482 424.699219 " style=" stroke:none;fill-rule:nonzero;fill:rgb(0%,0%,0%);fill-opacity:1;" />
</g>
</svg>